<svg width="32" height="32" viewBox="0 0 32 32" fill="none" xmlns="http://www.w3.org/2000/svg">
<path d="M23.0027 16.6534C22.6241 19.8067 20.5587 21.0667 19.6667 21.9814C18.7734 22.8987 18.9334 23.0814 18.9934 24.4267C19.0034 24.5932 18.9792 24.7599 18.9223 24.9167C18.8655 25.0734 18.7771 25.2169 18.6627 25.3382C18.5482 25.4594 18.4102 25.556 18.257 25.6219C18.1038 25.6879 17.9388 25.7217 17.7721 25.7214H14.228C14.0614 25.7211 13.8966 25.6869 13.7436 25.6208C13.5906 25.5547 13.4527 25.4581 13.3383 25.337C13.2239 25.2158 13.1354 25.0726 13.0781 24.9161C13.0209 24.7596 12.9961 24.5931 13.0054 24.4267C13.0054 23.1067 13.1281 22.8001 12.3334 21.9814C11.3201 20.9681 8.93605 19.5374 8.93605 15.6027C8.92996 14.6254 9.12641 13.6574 9.513 12.7598C9.89959 11.8621 10.468 11.0543 11.1822 10.3872C11.8965 9.72011 12.7413 9.20823 13.6632 8.88383C14.5852 8.55942 15.5643 8.42952 16.539 8.50232C17.5136 8.57512 18.4626 8.84903 19.3261 9.3068C20.1896 9.76457 20.949 10.3963 21.5562 11.1621C22.1635 11.9278 22.6056 12.8111 22.8545 13.7563C23.1035 14.7014 23.1539 15.6878 23.0027 16.6534Z" stroke="#D3B856" stroke-width="2" stroke-linecap="round" stroke-linejoin="round"/>
<path d="M13.9467 25.6481V27.6641C13.9467 28.2148 14.2534 28.6668 14.6307 28.6668H17.368C17.748 28.6668 18.0534 28.2134 18.0534 27.6641V25.6481M14.96 11.5948C14.1727 11.5951 13.4178 11.9081 12.8613 12.4649C12.3047 13.0218 11.992 13.7768 11.992 14.5641M25.776 15.8721H28.2214M23.3147 7.8561L25.0494 6.12143M24.648 22.6668L26.3827 24.4001M16 3.16943V5.14677M6.9867 6.1201L8.70936 7.8561M5.65336 24.4001L7.37603 22.6668M6.22403 15.8721H3.78003" stroke="#D3B856" stroke-width="2" stroke-linecap="round" stroke-linejoin="round"/>
</svg>
