<svg width="26" height="26" viewBox="0 0 26 26" fill="none" xmlns="http://www.w3.org/2000/svg">
<g clip-path="url(#clip0_1459_706)">
<path d="M24.7569 8.05186H23.5219V6.80873H22.2869V5.57373H16.0956V6.80873H14.8525V8.05186H13.6175V13H2.47V11.765H1.235V13H0V22.9044H1.235V16.7131H6.19125V24.1475H2.47V25.3825H23.5219V24.1475H19.8088V16.7131H24.7569V22.9044H26V13H24.7569V8.05186ZM16.0956 9.28686H17.3306V8.05186H18.5656V6.80873H19.8088V8.05186H21.0437V9.28686H17.3306V10.5219H21.0437V11.765H22.2869V13H21.0437V11.765H17.3306V10.5219H16.0956V9.28686ZM1.235 15.4781V14.2431H9.90438V15.4781H1.235ZM18.5656 24.1475H7.42625V16.7131H9.90438V17.9562H11.1394V14.2431H12.3825V16.7131H13.6175V14.2431H14.8525V17.9562H16.0956V16.7131H18.5656V24.1475ZM24.7569 15.4781H16.0956V14.2431H24.7569V15.4781Z" fill="#D3B856"/>
<path d="M23.5219 22.9043H24.7569V24.1474H23.5219V22.9043ZM23.5219 1.86056H24.7569V3.09556H23.5219V1.86056ZM22.2869 3.09556H23.5219V4.33868H22.2869V3.09556ZM18.5657 0.617432H19.8088V4.33868H18.5657V0.617432ZM14.8525 3.09556H16.0957V4.33868H14.8525V3.09556ZM13.6175 1.86056H14.8525V3.09556H13.6175V1.86056ZM11.1394 17.9562H14.8525V19.1912H11.1394V17.9562ZM11.1394 10.5218H12.3825V11.7649H11.1394V10.5218Z" fill="#D3B856"/>
<path d="M2.47 10.5218H3.71313V11.7649H9.90438V10.5218H11.1394V9.28681H12.3825V6.80868H14.8525V5.57368H12.3825V3.09556H11.1394V1.86056H9.90438V0.617432H3.71313V1.86056H2.47V3.09556H1.235V9.28681H2.47V10.5218ZM3.71313 4.33868H4.94812V3.09556H6.19125V1.86056H7.42625V3.09556H8.66125V4.33868H4.94812V5.57368H8.66125V6.80868H9.90438V8.05181H8.66125V9.28681H7.42625V10.5218H6.19125V9.28681H4.94812V8.05181H8.66125V6.80868H4.94812V5.57368H3.71313V4.33868ZM1.235 22.9043H2.47V24.1474H1.235V22.9043ZM0 9.28681H1.235V11.7649H0V9.28681Z" fill="#D3B856"/>
</g>
<defs>
<clipPath id="clip0_1459_706">
<rect width="26" height="26" fill="white"/>
</clipPath>
</defs>
</svg>
