<svg width="25" height="25" viewBox="0 0 25 25" fill="none" xmlns="http://www.w3.org/2000/svg">
<g clip-path="url(#clip0_180_70)">
<path d="M22.7737 0.942383H2.21785C1.51377 0.942383 0.942993 1.51316 0.942993 2.21724V22.7731C0.942993 23.4772 1.51377 24.048 2.21785 24.048H22.7737C23.4778 24.048 24.0486 23.4772 24.0486 22.7731V2.21724C24.0486 1.51316 23.4778 0.942383 22.7737 0.942383Z" fill="#3D5A98"/>
<path d="M16.8836 24.0468V15.0994H19.8863L20.3353 11.6126H16.8836V9.38693C16.8836 8.37759 17.1647 7.68842 18.6114 7.68842H20.4583V4.56472C19.5639 4.47168 18.6652 4.42737 17.766 4.43196C15.107 4.43196 13.2757 6.05238 13.2757 9.04137V11.6126H10.2731V15.0994H13.2757V24.0468H16.8836Z" fill="white"/>
</g>
<defs>
<clipPath id="clip0_180_70">
<rect width="24.9896" height="24.9896" fill="white"/>
</clipPath>
</defs>
</svg>
