<svg width="74" height="51" viewBox="0 0 74 51" fill="none" xmlns="http://www.w3.org/2000/svg">
<path d="M73.1281 17.2437L65.6809 2.27253C65.4411 1.79016 65.1091 1.35996 64.7038 1.0065C64.2985 0.653041 63.8279 0.383234 63.3188 0.212488C62.8097 0.041742 62.2721 -0.0265994 61.7367 0.0113647C61.2013 0.0493288 60.6786 0.192855 60.1985 0.43375L52.7367 4.18169L37.2263 0.05837C36.9334 -0.0178766 36.6259 -0.0178766 36.333 0.05837L20.8227 4.18169L13.3638 0.43375C12.8835 0.192399 12.3605 0.0485088 11.8248 0.0103064C11.2891 -0.027896 10.7512 0.0403384 10.2417 0.211108C9.7323 0.381877 9.26136 0.651833 8.85584 1.00554C8.45032 1.35926 8.11818 1.78979 7.87838 2.27253L0.431196 17.2437C-0.0533091 18.2176 -0.132968 19.3448 0.209738 20.3776C0.552443 21.4104 1.28945 22.2642 2.25869 22.7513L10.1846 26.7338L26.419 38.3823C26.5949 38.5097 26.7929 38.6032 27.0029 38.658L45.6865 43.3503C45.8287 43.3861 45.9749 43.4038 46.1215 43.403C46.5859 43.4026 47.0311 43.217 47.3593 42.8869L63.5061 26.6664L71.3006 22.7513C72.2699 22.2642 73.0069 21.4104 73.3496 20.3776C73.6923 19.3448 73.6126 18.2176 73.1281 17.2437ZM57.6557 27.555L47.2046 19.1441C46.8675 18.8731 46.4427 18.7367 46.0117 18.7611C45.5807 18.7854 45.1738 18.9688 44.8691 19.2761C39.4246 24.7865 33.3378 24.0915 29.458 21.5987C29.3817 21.5515 29.3173 21.4872 29.2697 21.4109C29.2221 21.3347 29.1927 21.2484 29.1836 21.1588C29.1732 21.0767 29.1812 20.9933 29.207 20.9147C29.2327 20.8361 29.2756 20.7642 29.3325 20.7043L42.16 8.21116H52.0448L60.3386 24.8745L57.6557 27.555ZM3.53151 19.2643C3.48324 19.1173 3.49478 18.9571 3.56363 18.8186L11.0137 3.84443C11.0627 3.74681 11.1378 3.66488 11.2307 3.60788C11.3235 3.55088 11.4304 3.52108 11.5392 3.52184C11.6294 3.52193 11.7183 3.54301 11.799 3.58342L18.2828 6.83867L10.3073 22.8744L3.82345 19.6192C3.75348 19.5829 3.69155 19.5327 3.64138 19.4717C3.59121 19.4108 3.55384 19.3402 3.53151 19.2643ZM45.5843 39.6962L28.1852 35.3265L13.3258 24.6634L21.8444 7.55131L36.7797 3.58049L41.1003 4.73009C40.7698 4.79431 40.4653 4.95438 40.2245 5.19052L26.8832 18.1969C26.45 18.6317 26.1196 19.1589 25.9165 19.7393C25.7134 20.3196 25.6427 20.9385 25.7097 21.55C25.7767 22.1615 25.9796 22.7501 26.3035 23.2722C26.6274 23.7944 27.0639 24.2367 27.5809 24.5666C33.4837 28.3556 40.6448 27.6429 46.2062 22.8392L55.1714 30.0595L45.5843 39.6962ZM70.0278 19.2643C70.0038 19.3375 69.9656 19.4052 69.9155 19.4636C69.8655 19.522 69.8044 19.5699 69.7359 19.6045L63.2521 22.8744L55.2765 6.83867L61.7603 3.58342C61.829 3.54878 61.9038 3.5281 61.9804 3.52257C62.0571 3.51703 62.1341 3.52675 62.207 3.55116C62.2798 3.5753 62.3472 3.61362 62.4053 3.66394C62.4634 3.71426 62.5111 3.77559 62.5456 3.84443L69.9957 18.8186C70.0645 18.9571 70.0761 19.1173 70.0278 19.2643ZM37.3314 49.1071C37.219 49.5596 36.9323 49.9489 36.5343 50.1892C36.1364 50.4295 35.6597 50.5012 35.2091 50.3886L23.0267 47.3299C22.8166 47.2757 22.6185 47.1822 22.4429 47.0542L14.7446 41.5379C14.3664 41.2656 14.1113 40.8536 14.0355 40.3925C13.9597 39.9313 14.0693 39.4588 14.3403 39.0788C14.6113 38.6989 15.0214 38.4426 15.4805 38.3665C15.9395 38.2903 16.4099 38.4004 16.7882 38.6727L24.2003 43.9896L36.0557 46.9662C36.2794 47.0224 36.4899 47.1224 36.6751 47.2605C36.8603 47.3986 37.0165 47.5721 37.1347 47.771C37.253 47.97 37.331 48.1904 37.3643 48.4196C37.3975 48.6489 37.3853 48.8825 37.3285 49.1071H37.3314Z" fill="#D0B55A"/>
</svg>
