<svg width="55" height="53" viewBox="0 0 55 53" fill="none" xmlns="http://www.w3.org/2000/svg">
<path fill-rule="evenodd" clip-rule="evenodd" d="M38.1616 34.3309C41.4604 30.569 43.2672 25.7987 43.2596 20.8708C43.2596 9.34372 33.5761 0 21.6298 0C9.68349 0 0 9.34372 0 20.8708C0 32.398 9.68349 41.7417 21.6298 41.7417C26.9457 41.7417 31.8124 39.8922 35.5793 36.8226L34.9404 40.3674L47.4425 52.4308L54.3374 45.7778L41.8353 33.7144L38.1616 34.3309ZM21.6298 36.9253C30.8191 36.9253 38.2681 29.7377 38.2681 20.8708C38.2681 12.0039 30.8191 4.81635 21.6298 4.81635C12.4405 4.81635 4.99149 12.0039 4.99149 20.8708C4.99149 29.7377 12.4405 36.9253 21.6298 36.9253Z" fill="#D0B55A"/>
</svg>
