<svg width="32" height="26" viewBox="0 0 32 26" fill="none" xmlns="http://www.w3.org/2000/svg">
<g clip-path="url(#clip0_1459_698)">
<path d="M25.96 6.49492L23.58 4.07773C23.0533 3.54748 22.3416 3.24998 21.6 3.25H10.26C9.52 3.25 8.805 3.54961 8.28 4.07773L5.9 6.49492H0V19.4797H3.2C4.08 19.4797 4.79 18.7586 4.795 17.8699H5.25L9.48 21.7496C11.025 23.0242 13.17 23.0547 14.76 21.9426C15.385 22.491 16.06 22.75 16.815 22.75C17.725 22.75 18.58 22.3742 19.255 21.5312C20.36 21.973 21.665 21.6633 22.455 20.6781L23.765 19.0379C24.045 18.6875 24.22 18.2863 24.31 17.8699H27.205C27.21 18.7586 27.925 19.4797 28.8 19.4797H32V6.49492H25.96ZM2.4 17.8547C1.96 17.8547 1.6 17.4891 1.6 17.0422C1.6 16.5953 1.96 16.2297 2.4 16.2297C2.84 16.2297 3.2 16.5953 3.2 17.0422C3.2 17.4941 2.84 17.8547 2.4 17.8547ZM21.9 17.5043L20.595 19.1395C20.455 19.3121 20.205 19.3426 20.03 19.2004L18.835 18.2152L17.335 20.0688C17.035 20.4395 16.585 20.3125 16.435 20.1906L14.595 18.591L13.815 19.566C13.12 20.4344 11.855 20.5664 11.05 19.9012L6.185 15.4324H4.8V8.92734H6.895L9.98 5.79922C10.08 5.75859 10.165 5.72305 10.265 5.68242H13.1L11.165 7.48516C9.695 8.85117 9.61 11.1566 10.945 12.6293C11.685 13.452 14.005 14.7215 16.02 12.8527L16.43 12.4719L21.84 16.9305C22.01 17.0727 22.035 17.3316 21.9 17.5043ZM27.2 15.4324H23.74C23.625 15.2902 23.495 15.1582 23.355 15.0414L18.22 10.8063L18.845 10.2273C19.17 9.92266 19.195 9.40977 18.895 9.07969L18.35 8.48555C18.05 8.15547 17.545 8.13516 17.22 8.43477L14.46 11.0043C13.985 11.4461 13.175 11.4816 12.73 11.0043C12.265 10.5016 12.305 9.72969 12.79 9.28281L16.07 6.23086C16.44 5.88555 16.92 5.69766 17.42 5.69766L21.605 5.6875C21.71 5.6875 21.81 5.72813 21.88 5.8043L24.965 8.93242H27.2V15.4324ZM29.6 17.8547C29.16 17.8547 28.8 17.4891 28.8 17.0422C28.8 16.5953 29.16 16.2297 29.6 16.2297C30.04 16.2297 30.4 16.5953 30.4 17.0422C30.4 17.4941 30.04 17.8547 29.6 17.8547Z" fill="#D3B856"/>
</g>
<defs>
<clipPath id="clip0_1459_698">
<rect width="32" height="26" fill="white"/>
</clipPath>
</defs>
</svg>
