<svg width="27" height="27" viewBox="0 0 27 27" fill="none" xmlns="http://www.w3.org/2000/svg">
<g clip-path="url(#clip0_180_73)">
<path d="M20.6633 0H6.32549C2.83202 0 0 2.83202 0 6.32549V20.6633C0 24.1567 2.83202 26.9888 6.32549 26.9888H20.6633C24.1567 26.9888 26.9888 24.1567 26.9888 20.6633V6.32549C26.9888 2.83202 24.1567 0 20.6633 0Z" fill="url(#paint0_radial_180_73)"/>
<path d="M20.6633 0H6.32549C2.83202 0 0 2.83202 0 6.32549V20.6633C0 24.1567 2.83202 26.9888 6.32549 26.9888H20.6633C24.1567 26.9888 26.9888 24.1567 26.9888 20.6633V6.32549C26.9888 2.83202 24.1567 0 20.6633 0Z" fill="url(#paint1_radial_180_73)"/>
<path d="M13.4953 2.95166C10.6322 2.95166 10.2728 2.96421 9.14835 3.01534C8.026 3.06678 7.25988 3.24442 6.58959 3.50514C5.8961 3.7744 5.30794 4.13463 4.72199 4.72079C4.13551 5.30685 3.77527 5.89502 3.50517 6.58818C3.24372 7.25869 3.06587 8.02512 3.01537 9.14695C2.96508 10.2715 2.9519 10.631 2.9519 13.4942C2.9519 16.3575 2.96456 16.7157 3.01558 17.8402C3.06724 18.9625 3.24488 19.7287 3.50538 20.3989C3.77485 21.0924 4.13509 21.6806 4.72125 22.2665C5.3071 22.853 5.89526 23.2141 6.58822 23.4834C7.25904 23.7441 8.02526 23.9217 9.14741 23.9732C10.272 24.0243 10.631 24.0368 13.4941 24.0368C16.3575 24.0368 16.7157 24.0243 17.8402 23.9732C18.9626 23.9217 19.7295 23.7441 20.4003 23.4834C21.0935 23.2141 21.6808 22.853 22.2666 22.2665C22.8531 21.6806 23.2132 21.0924 23.4834 20.3993C23.7425 19.7287 23.9205 18.9623 23.9732 17.8404C24.0237 16.7159 24.0369 16.3575 24.0369 13.4942C24.0369 10.631 24.0237 10.2717 23.9732 9.14716C23.9205 8.02481 23.7425 7.25879 23.4834 6.5885C23.2132 5.89502 22.8531 5.30685 22.2666 4.72079C21.6802 4.13442 21.0937 3.77418 20.3997 3.50525C19.7276 3.24442 18.9611 3.06668 17.8387 3.01534C16.7142 2.96421 16.3561 2.95166 13.4921 2.95166H13.4953ZM12.5496 4.85152C12.8303 4.8511 13.1435 4.85152 13.4953 4.85152C16.3103 4.85152 16.6438 4.86164 17.7554 4.91214C18.7833 4.95916 19.3412 5.1309 19.7129 5.27522C20.2049 5.46625 20.5556 5.69471 20.9244 6.0638C21.2934 6.43279 21.5218 6.78417 21.7133 7.27619C21.8576 7.64728 22.0296 8.20519 22.0764 9.23308C22.1269 10.3445 22.1379 10.6782 22.1379 13.4918C22.1379 16.3054 22.1269 16.6393 22.0764 17.7506C22.0294 18.7785 21.8576 19.3364 21.7133 19.7076C21.5223 20.1996 21.2934 20.5499 20.9244 20.9187C20.5554 21.2877 20.2051 21.516 19.7129 21.7072C19.3417 21.8521 18.7833 22.0234 17.7554 22.0705C16.6441 22.121 16.3103 22.1319 13.4953 22.1319C10.6803 22.1319 10.3466 22.121 9.23533 22.0705C8.20744 22.023 7.64953 21.8513 7.27759 21.7069C6.78568 21.5158 6.43419 21.2875 6.0652 20.9185C5.69622 20.5495 5.46787 20.199 5.27631 19.7067C5.13198 19.3355 4.96004 18.7776 4.91323 17.7497C4.86273 16.6383 4.85261 16.3046 4.85261 13.4892C4.85261 10.6738 4.86273 10.3418 4.91323 9.23045C4.96025 8.20255 5.13198 7.64465 5.27631 7.27302C5.46745 6.78101 5.69622 6.42963 6.06531 6.06064C6.4344 5.69165 6.78568 5.4632 7.2777 5.27174C7.64932 5.12679 8.20744 4.95547 9.23533 4.90824C10.2079 4.86428 10.5848 4.8511 12.5496 4.84889V4.85152ZM19.1229 6.60199C18.4245 6.60199 17.8578 7.16813 17.8578 7.86667C17.8578 8.56511 18.4245 9.13177 19.1229 9.13177C19.8214 9.13177 20.388 8.56511 20.388 7.86667C20.388 7.16823 19.8214 6.60157 19.1229 6.60157V6.60199ZM13.4953 8.08016C10.5055 8.08016 8.08135 10.5043 8.08135 13.4942C8.08135 16.4842 10.5055 18.9072 13.4953 18.9072C16.4853 18.9072 18.9086 16.4842 18.9086 13.4942C18.9086 10.5044 16.4851 8.08016 13.4951 8.08016H13.4953ZM13.4953 9.98002C15.4361 9.98002 17.0096 11.5533 17.0096 13.4942C17.0096 15.435 15.4361 17.0085 13.4953 17.0085C11.5546 17.0085 9.98121 15.435 9.98121 13.4942C9.98121 11.5533 11.5545 9.98002 13.4953 9.98002Z" fill="white"/>
</g>
<defs>
<radialGradient id="paint0_radial_180_73" cx="0" cy="0" r="1" gradientUnits="userSpaceOnUse" gradientTransform="translate(7.16889 29.0674) rotate(-90) scale(26.7479 24.8776)">
<stop stop-color="#FFDD55"/>
<stop offset="0.1" stop-color="#FFDD55"/>
<stop offset="0.5" stop-color="#FF543E"/>
<stop offset="1" stop-color="#C837AB"/>
</radialGradient>
<radialGradient id="paint1_radial_180_73" cx="0" cy="0" r="1" gradientUnits="userSpaceOnUse" gradientTransform="translate(-4.52072 1.94414) rotate(78.681) scale(11.9564 49.2848)">
<stop stop-color="#3771C8"/>
<stop offset="0.128" stop-color="#3771C8"/>
<stop offset="1" stop-color="#6600FF" stop-opacity="0"/>
</radialGradient>
<clipPath id="clip0_180_73">
<rect width="26.9888" height="26.9888" fill="white"/>
</clipPath>
</defs>
</svg>
