<svg width="28" height="28" viewBox="0 0 28 28" fill="none" xmlns="http://www.w3.org/2000/svg">
<g clip-path="url(#clip0_1459_711)">
<path d="M22.75 14.875C23.3516 14.875 23.9167 14.9889 24.4453 15.2168C24.974 15.4447 25.4388 15.7546 25.8398 16.1465C26.2409 16.5384 26.5553 17.0033 26.7832 17.541C27.0111 18.0788 27.125 18.6484 27.125 19.25C27.125 19.724 27.0521 20.1842 26.9062 20.6309C26.7604 21.0775 26.5417 21.4922 26.25 21.875V27.6719L22.75 25.9219L19.25 27.6719V21.875C18.9674 21.4922 18.7533 21.0775 18.6074 20.6309C18.4616 20.1842 18.3841 19.724 18.375 19.25C18.375 18.6484 18.4889 18.0833 18.7168 17.5547C18.9447 17.026 19.2546 16.5612 19.6465 16.1602C20.0384 15.7591 20.5033 15.4447 21.041 15.2168C21.5788 14.9889 22.1484 14.875 22.75 14.875ZM22.75 16.625C22.3854 16.625 22.0436 16.6934 21.7246 16.8301C21.4056 16.9668 21.1276 17.1536 20.8906 17.3906C20.6536 17.6276 20.4668 17.9056 20.3301 18.2246C20.1934 18.5436 20.125 18.8854 20.125 19.25C20.125 19.6146 20.1934 19.9564 20.3301 20.2754C20.4668 20.5944 20.6536 20.8724 20.8906 21.1094C21.1276 21.3464 21.4056 21.5332 21.7246 21.6699C22.0436 21.8066 22.3854 21.875 22.75 21.875C23.1146 21.875 23.4564 21.8066 23.7754 21.6699C24.0944 21.5332 24.3724 21.3464 24.6094 21.1094C24.8464 20.8724 25.0332 20.5944 25.1699 20.2754C25.3066 19.9564 25.375 19.6146 25.375 19.25C25.375 18.8854 25.3066 18.5436 25.1699 18.2246C25.0332 17.9056 24.8464 17.6276 24.6094 17.3906C24.3724 17.1536 24.0944 16.9668 23.7754 16.8301C23.4564 16.6934 23.1146 16.625 22.75 16.625ZM24.5 24.8281V23.2559C23.9531 23.502 23.3698 23.625 22.75 23.625C22.1302 23.625 21.5469 23.502 21 23.2559V24.8281L22.75 23.9531L24.5 24.8281ZM22.75 7C22.2669 7 21.8158 7.09115 21.3965 7.27344C20.9772 7.45573 20.6035 7.70638 20.2754 8.02539C19.9473 8.3444 19.6966 8.71354 19.5234 9.13281C19.3503 9.55208 19.2591 10.0078 19.25 10.5C19.25 11.3385 19.0632 12.127 18.6895 12.8652C18.3158 13.6035 17.7871 14.2279 17.1035 14.7383C17.2767 14.8203 17.4408 14.9115 17.5957 15.0117C17.7507 15.112 17.9102 15.2168 18.0742 15.3262L17.0488 16.748C16.6022 16.429 16.1191 16.1829 15.5996 16.0098C15.0801 15.8366 14.5469 15.75 14 15.75C13.2708 15.75 12.5918 15.8867 11.9629 16.1602C11.334 16.4336 10.778 16.8073 10.2949 17.2812C9.81185 17.7552 9.43359 18.3158 9.16016 18.9629C8.88672 19.61 8.75 20.2891 8.75 21H7C7 20.3346 7.09115 19.6921 7.27344 19.0723C7.45573 18.4525 7.71549 17.8691 8.05273 17.3223C8.38997 16.7754 8.79557 16.2832 9.26953 15.8457C9.74349 15.4082 10.2812 15.0345 10.8828 14.7246C10.2083 14.2233 9.68425 13.6035 9.31055 12.8652C8.93685 12.127 8.75 11.3385 8.75 10.5C8.75 10.0169 8.65885 9.56575 8.47656 9.14648C8.29427 8.72721 8.04362 8.35352 7.72461 8.02539C7.4056 7.69727 7.03646 7.44661 6.61719 7.27344C6.19792 7.10026 5.74219 7.00911 5.25 7C4.76693 7 4.31576 7.09115 3.89648 7.27344C3.47721 7.45573 3.10352 7.70638 2.77539 8.02539C2.44727 8.3444 2.19661 8.71354 2.02344 9.13281C1.85026 9.55208 1.75911 10.0078 1.75 10.5H0C0 10.026 0.0638021 9.56575 0.191406 9.11914C0.31901 8.67253 0.496745 8.2487 0.724609 7.84766C0.952474 7.44661 1.23503 7.08203 1.57227 6.75391C1.90951 6.42578 2.28776 6.14323 2.70703 5.90625C2.40625 5.58724 2.17383 5.2181 2.00977 4.79883C1.8457 4.37956 1.75911 3.94661 1.75 3.5C1.75 3.01693 1.84115 2.56576 2.02344 2.14648C2.20573 1.72721 2.45638 1.35352 2.77539 1.02539C3.0944 0.697266 3.46354 0.446615 3.88281 0.273438C4.30208 0.10026 4.75781 0.00911458 5.25 0C5.73307 0 6.18424 0.0911458 6.60352 0.273438C7.02279 0.455729 7.39648 0.70638 7.72461 1.02539C8.05273 1.3444 8.30339 1.71354 8.47656 2.13281C8.64974 2.55208 8.74089 3.00781 8.75 3.5C8.75 3.94661 8.66797 4.37956 8.50391 4.79883C8.33984 5.2181 8.10286 5.58724 7.79297 5.90625C8.54036 6.31641 9.15104 6.88151 9.625 7.60156C9.87109 7.23698 10.1536 6.90885 10.4727 6.61719C10.7917 6.32552 11.138 6.07943 11.5117 5.87891C11.8854 5.67839 12.2819 5.52344 12.7012 5.41406C13.1204 5.30469 13.5534 5.25 14 5.25C14.4375 5.25 14.8659 5.30469 15.2852 5.41406C15.7044 5.52344 16.1009 5.67839 16.4746 5.87891C16.8483 6.07943 17.1992 6.32552 17.5273 6.61719C17.8555 6.90885 18.138 7.23698 18.375 7.60156C18.849 6.88151 19.4596 6.31641 20.207 5.90625C19.9062 5.58724 19.6738 5.2181 19.5098 4.79883C19.3457 4.37956 19.2591 3.94661 19.25 3.5C19.25 3.01693 19.3411 2.56576 19.5234 2.14648C19.7057 1.72721 19.9564 1.35352 20.2754 1.02539C20.5944 0.697266 20.9635 0.446615 21.3828 0.273438C21.8021 0.10026 22.2578 0.00911458 22.75 0C23.2331 0 23.6842 0.0911458 24.1035 0.273438C24.5228 0.455729 24.8965 0.70638 25.2246 1.02539C25.5527 1.3444 25.8034 1.71354 25.9766 2.13281C26.1497 2.55208 26.2409 3.00781 26.25 3.5C26.25 3.94661 26.168 4.37956 26.0039 4.79883C25.8398 5.2181 25.6029 5.58724 25.293 5.90625C25.7122 6.14323 26.0859 6.42578 26.4141 6.75391C26.7422 7.08203 27.0247 7.44206 27.2617 7.83398C27.4987 8.22591 27.681 8.64974 27.8086 9.10547C27.9362 9.5612 28 10.026 28 10.5H26.25C26.25 10.0169 26.1589 9.56575 25.9766 9.14648C25.7943 8.72721 25.5436 8.35352 25.2246 8.02539C24.9056 7.69727 24.5365 7.44661 24.1172 7.27344C23.6979 7.10026 23.2422 7.00911 22.75 7ZM21 3.5C21 3.74609 21.0456 3.97396 21.1367 4.18359C21.2279 4.39323 21.3509 4.57552 21.5059 4.73047C21.6608 4.88542 21.8477 5.01302 22.0664 5.11328C22.2852 5.21354 22.513 5.25911 22.75 5.25C22.9961 5.25 23.224 5.20443 23.4336 5.11328C23.6432 5.02214 23.8255 4.89909 23.9805 4.74414C24.1354 4.58919 24.263 4.40234 24.3633 4.18359C24.4635 3.96484 24.5091 3.73698 24.5 3.5C24.5 3.25391 24.4544 3.02604 24.3633 2.81641C24.2721 2.60677 24.1491 2.42448 23.9941 2.26953C23.8392 2.11458 23.6523 1.98698 23.4336 1.88672C23.2148 1.78646 22.987 1.74089 22.75 1.75C22.5039 1.75 22.276 1.79557 22.0664 1.88672C21.8568 1.97786 21.6745 2.10091 21.5195 2.25586C21.3646 2.41081 21.237 2.59766 21.1367 2.81641C21.0365 3.03516 20.9909 3.26302 21 3.5ZM3.5 3.5C3.5 3.74609 3.54557 3.97396 3.63672 4.18359C3.72786 4.39323 3.85091 4.57552 4.00586 4.73047C4.16081 4.88542 4.34766 5.01302 4.56641 5.11328C4.78516 5.21354 5.01302 5.25911 5.25 5.25C5.49609 5.25 5.72396 5.20443 5.93359 5.11328C6.14323 5.02214 6.32552 4.89909 6.48047 4.74414C6.63542 4.58919 6.76302 4.40234 6.86328 4.18359C6.96354 3.96484 7.00911 3.73698 7 3.5C7 3.25391 6.95443 3.02604 6.86328 2.81641C6.77214 2.60677 6.64909 2.42448 6.49414 2.26953C6.33919 2.11458 6.15234 1.98698 5.93359 1.88672C5.71484 1.78646 5.48698 1.74089 5.25 1.75C5.00391 1.75 4.77604 1.79557 4.56641 1.88672C4.35677 1.97786 4.17448 2.10091 4.01953 2.25586C3.86458 2.41081 3.73698 2.59766 3.63672 2.81641C3.53646 3.03516 3.49089 3.26302 3.5 3.5ZM10.5 10.5C10.5 10.9831 10.5911 11.4342 10.7734 11.8535C10.9557 12.2728 11.2064 12.6465 11.5254 12.9746C11.8444 13.3027 12.2135 13.5534 12.6328 13.7266C13.0521 13.8997 13.5078 13.9909 14 14C14.4831 14 14.9342 13.9089 15.3535 13.7266C15.7728 13.5443 16.1465 13.2936 16.4746 12.9746C16.8027 12.6556 17.0534 12.2865 17.2266 11.8672C17.3997 11.4479 17.4909 10.9922 17.5 10.5C17.5 10.0169 17.4089 9.56575 17.2266 9.14648C17.0443 8.72721 16.7936 8.35352 16.4746 8.02539C16.1556 7.69727 15.7865 7.44661 15.3672 7.27344C14.9479 7.10026 14.4922 7.00911 14 7C13.5169 7 13.0658 7.09115 12.6465 7.27344C12.2272 7.45573 11.8535 7.70638 11.5254 8.02539C11.1973 8.3444 10.9466 8.71354 10.7734 9.13281C10.6003 9.55208 10.5091 10.0078 10.5 10.5Z" fill="#D3B856"/>
</g>
<defs>
<clipPath id="clip0_1459_711">
<rect width="28" height="28" fill="white"/>
</clipPath>
</defs>
</svg>
