<svg width="52" height="50" viewBox="0 0 52 50" fill="none" xmlns="http://www.w3.org/2000/svg">
<path d="M18.3491 9.46663C15.8446 9.55968 13.5804 10.4222 12.3699 11.5916C12.2362 11.7206 12.0774 11.8228 11.9027 11.8926C11.728 11.9623 11.5408 11.9982 11.3518 11.9981C11.1627 11.9981 10.9755 11.9621 10.8009 11.8922C10.6262 11.8223 10.4675 11.72 10.3339 11.5909C10.2003 11.4619 10.0943 11.3087 10.022 11.1401C9.9497 10.9716 9.91253 10.7909 9.9126 10.6085C9.91266 10.4261 9.94997 10.2454 10.0224 10.0769C10.0948 9.9084 10.2009 9.7553 10.3346 9.62635C12.2015 7.82497 15.2415 6.80276 18.2368 6.69026C21.2524 6.57776 24.5442 7.37359 26.8501 9.59857C27.12 9.85918 27.2716 10.2126 27.2714 10.581C27.2713 10.9494 27.1195 11.3027 26.8494 11.5631C26.5793 11.8236 26.2131 11.9698 25.8312 11.9697C25.4494 11.9695 25.0833 11.8231 24.8134 11.5624C23.2445 10.0472 20.8349 9.37219 18.3491 9.46524" fill="#D0B55A"/>
<path fill-rule="evenodd" clip-rule="evenodd" d="M33.0137 29.6998C35.8675 26.4453 37.4305 22.3186 37.424 18.0554C37.424 8.08328 29.0468 0 18.712 0C8.37721 0 0 8.08328 0 18.0554C0 28.0276 8.37721 36.1109 18.712 36.1109C23.3108 36.1109 27.521 34.5109 30.7798 31.8553L30.2271 34.922L41.0426 45.358L47.0074 39.6025L36.1919 29.1665L33.0137 29.6998ZM18.712 31.9442C26.6617 31.9442 33.1058 25.7262 33.1058 18.0554C33.1058 10.3846 26.6617 4.16664 18.712 4.16664C10.7623 4.16664 4.31815 10.3846 4.31815 18.0554C4.31815 25.7262 10.7623 31.9442 18.712 31.9442Z" fill="#D0B55A"/>
<path d="M43.0781 47.3217L49.0429 41.5662L50.9947 43.4495C52.093 44.5092 52.093 46.2272 50.9947 47.2856L49.0055 49.205C47.9073 50.2647 46.1267 50.2647 45.0299 49.205L43.0781 47.3217Z" fill="#D0B55A"/>
</svg>
