<svg width="48" height="51" viewBox="0 0 48 51" fill="none" xmlns="http://www.w3.org/2000/svg">
<path fill-rule="evenodd" clip-rule="evenodd" d="M33.5778 18.6174C34.0908 19.1029 34.3852 19.7675 34.3963 20.465C34.4075 21.1625 34.1343 21.8357 33.6371 22.3365L22.7807 33.2756C22.4867 33.5728 22.1345 33.809 21.7451 33.9704C21.3556 34.1318 20.9368 34.2149 20.5138 34.2149C20.0907 34.2149 19.6719 34.1318 19.2825 33.9704C18.893 33.809 18.5408 33.5728 18.2468 33.2756L13.6053 28.5991C13.3558 28.3517 13.159 28.0586 13.0262 27.7367C12.8933 27.4147 12.8271 27.0702 12.8312 26.7231C12.8354 26.376 12.9099 26.0332 13.0504 25.7143C13.1909 25.3954 13.3947 25.1069 13.6499 24.8653C13.9052 24.6237 14.2069 24.4338 14.5377 24.3066C14.8685 24.1794 15.2218 24.1174 15.5773 24.1241C15.9328 24.1309 16.2833 24.2062 16.6088 24.3459C16.9343 24.4856 17.2282 24.6867 17.4737 24.9378L20.5124 27.9994L29.7687 18.6753C30.2659 18.1744 30.9466 17.887 31.661 17.8761C32.3753 17.8653 33.0648 18.1319 33.5778 18.6174Z" fill="#4A9B7A"/>
<path fill-rule="evenodd" clip-rule="evenodd" d="M21.0909 0.410917C22.7306 -0.136973 24.5103 -0.136973 26.15 0.410917L41.9255 5.66085C43.5951 6.2182 45.0233 7.30921 45.979 8.75738C46.9347 10.2056 47.3621 11.9262 47.1921 13.6409L45.1501 34.1357C45.0429 35.2234 44.6976 36.276 44.1376 37.2222C43.5775 38.1684 42.8158 38.986 41.9039 39.6197L28.1166 49.2384C26.8063 50.1516 25.2398 50.6488 23.6301 50.6625C22.0203 50.6761 20.4452 50.2055 19.1189 49.3147L5.442 40.122C4.49938 39.4887 3.7102 38.6616 3.12986 37.6987C2.54952 36.7359 2.19211 35.6607 2.0827 34.5486L0.0353402 13.6304C-0.131864 11.9167 0.297511 10.198 1.25411 8.75193C2.2107 7.30585 3.63865 6.21685 5.3073 5.66085L21.0909 0.410917ZM24.5687 4.9349C23.9536 4.73206 23.2873 4.73206 22.6722 4.9349L6.88862 10.1901C6.2626 10.398 5.72678 10.8061 5.36792 11.3484C5.00906 11.8907 4.84817 12.5354 4.9113 13.178L6.96136 34.0962C7.04217 34.9379 7.50552 35.7059 8.2221 36.1872L21.8963 45.3772C22.9146 46.0611 24.267 46.0506 25.2718 45.3509L39.0619 35.7322C39.4019 35.4928 39.686 35.1856 39.8954 34.8311C40.1048 34.4765 40.2348 34.0826 40.2768 33.6754L42.3215 13.1807C42.3859 12.5371 42.2256 11.8913 41.8667 11.3479C41.5077 10.8045 40.9712 10.3956 40.3442 10.1875L24.5687 4.9349Z" fill="#4A9B7A"/>
</svg>
