<svg width="24" height="27" viewBox="0 0 24 27" fill="none" xmlns="http://www.w3.org/2000/svg">
<g clip-path="url(#clip0_180_83)">
<path d="M17.3472 9.54789C19.055 10.7681 21.1472 11.4861 23.4069 11.4861V7.14012C22.9792 7.14029 22.5527 7.09567 22.1343 7.00699V10.4279C19.8748 10.4279 17.7829 9.71001 16.0747 8.48989V17.3588C16.0747 21.7955 12.4761 25.3918 8.03748 25.3918C6.38131 25.3918 4.8419 24.8914 3.56317 24.0331C5.02267 25.5247 7.05802 26.4499 9.30971 26.4499C13.7487 26.4499 17.3474 22.8536 17.3474 18.4167V9.54789H17.3472ZM18.9171 5.16338C18.0443 4.21034 17.4712 2.97871 17.3472 1.61705V1.05811H16.1412C16.4448 2.78871 17.4803 4.26722 18.9171 5.16338ZM6.37061 20.6286C5.88292 19.9896 5.61932 19.2078 5.62056 18.404C5.62056 16.3748 7.26649 14.7295 9.29718 14.7295C9.67557 14.7293 10.0517 14.7874 10.4124 14.9017V10.4586C9.99091 10.4009 9.56555 10.3763 9.14037 10.3854V13.8436C8.77949 13.7293 8.40315 13.6712 8.02459 13.6715C5.99398 13.6715 4.34815 15.3167 4.34815 17.3461C4.34815 18.781 5.17079 20.0234 6.37061 20.6286Z" fill="#FF004F"/>
<path d="M16.0746 8.4898C17.7829 9.70992 19.8747 10.4278 22.1343 10.4278V7.0069C20.873 6.73835 19.7565 6.07965 18.917 5.16338C17.4801 4.26713 16.4448 2.78861 16.1412 1.05811H12.9736V18.4165C12.9664 20.4401 11.3233 22.0787 9.29699 22.0787C8.10303 22.0787 7.04219 21.5098 6.37042 20.6285C5.17078 20.0234 4.34805 18.781 4.34805 17.3462C4.34805 15.3169 5.99389 13.6716 8.02449 13.6716C8.41354 13.6716 8.78852 13.7322 9.14027 13.8437V10.3854C4.77953 10.4755 1.27252 14.0367 1.27252 18.4166C1.27252 20.603 2.14582 22.585 3.56326 24.0333C4.84198 24.8914 6.3813 25.392 8.03756 25.392C12.4763 25.392 16.0747 21.7954 16.0747 17.3588L16.0746 8.4898Z" fill="black"/>
<path d="M22.1343 7.0067V6.08192C20.9969 6.08357 19.882 5.76523 18.917 5.16327C19.7712 6.09794 20.896 6.74248 22.1343 7.00689M16.1411 1.05791C16.1122 0.892554 16.09 0.726097 16.0745 0.558945V0H11.7008V17.3586C11.6939 19.382 10.0508 21.0206 8.02438 21.0206C7.44991 21.0214 6.8833 20.8871 6.37031 20.6286C7.04209 21.5097 8.10292 22.0785 9.29689 22.0785C11.3231 22.0785 12.9664 20.4401 12.9735 18.4165V1.058L16.1411 1.05791ZM9.14044 10.3852V9.40058C8.77496 9.35068 8.40651 9.32569 8.03764 9.32578C3.59844 9.32578 0 12.9223 0 17.3586C0 20.1399 1.41423 22.5912 3.56333 24.033C2.1459 22.5848 1.2726 20.6027 1.2726 18.4164C1.2726 14.0366 4.77952 10.4753 9.14044 10.3852Z" fill="#00F2EA"/>
</g>
<defs>
<clipPath id="clip0_180_83">
<rect width="23.4075" height="26.5163" fill="white"/>
</clipPath>
</defs>
</svg>
