<svg width="69" height="69" viewBox="0 0 69 69" fill="none" xmlns="http://www.w3.org/2000/svg">
<path d="M36.7222 2.11198V4.13445C36.7222 5.32372 37.2491 6.44889 38.1641 7.21088L41.9665 10.3799C43.5401 11.6938 43.8712 13.9762 42.7355 15.6853L40.9197 18.4128C39.931 19.8948 38.4765 21.0049 36.7862 21.5675L36.2771 21.7385C35.7026 21.9306 35.1802 22.2525 34.7503 22.6793C34.3204 23.1061 33.9946 23.6262 33.7983 24.1994C33.602 24.7725 33.5405 25.3831 33.6184 25.9839C33.6963 26.5847 33.9117 27.1594 34.2477 27.6634C34.5575 28.129 34.7649 28.655 34.8559 29.2068C34.947 29.7585 34.9198 30.3233 34.776 30.8637C34.6323 31.4041 34.3753 31.9078 34.0221 32.3413C33.6689 32.7748 33.2276 33.1283 32.7275 33.3783L23.371 38.0571L24.877 41.8278C25.1808 42.5937 25.1965 43.4437 24.9212 44.2203C24.6459 44.9968 24.0984 45.6472 23.3801 46.0507C22.6619 46.4542 21.8217 46.5835 21.0154 46.4146C20.2091 46.2457 19.4914 45.79 18.9954 45.1321L16.578 41.9062C16.1683 41.3601 15.6258 40.9279 15.0021 40.6504C14.3784 40.373 13.6942 40.2595 13.0143 40.3209C12.3345 40.3822 11.6816 40.6163 11.1177 41.001C10.5537 41.3856 10.0974 41.908 9.79205 42.5186L7.34968 47.4039L5.17078 47.9486M36.7222 2.11198C31.0935 1.63961 25.44 2.66721 20.3346 5.0839C15.2292 7.5006 10.8532 11.2241 7.65015 15.877C4.44709 20.5299 2.53077 25.9469 2.09535 31.5791C1.65994 37.2114 2.72092 42.8586 5.17078 47.9486M36.7222 2.11198C42.3036 2.57754 47.6655 4.50165 52.2735 7.68575C56.8814 10.8698 60.5743 15.2063 62.9841 20.2627C65.3939 25.3191 66.4364 30.919 66.0077 36.504C65.5789 42.0889 63.6939 47.464 60.5406 52.0933L59.9104 50.2097C59.3783 48.6145 58.3579 47.2273 56.9937 46.2444C55.6294 45.2615 53.9905 44.7329 52.3091 44.7333H50.0733L48.9197 43.5797C48.3403 42.9992 47.6312 42.5648 46.8508 42.3124C46.0705 42.06 45.2414 41.9967 44.4318 42.1278C43.6222 42.259 42.8554 42.5807 42.1946 43.0665C41.5338 43.5524 40.998 44.1884 40.6314 44.9221L40.5032 45.182C40.1511 45.8804 39.6589 46.4988 39.0574 46.9986C38.4559 47.4985 37.758 47.8692 37.007 48.0875L33.4823 49.0916C31.5241 49.6506 30.2994 51.5912 30.634 53.603L30.8939 55.1626C31.1788 56.8503 32.6385 58.0859 34.3474 58.0859C37.3594 58.0859 40.0368 60.0158 40.9874 62.875L41.7529 65.1645M5.17078 47.9486C8.36225 54.585 13.7417 59.9196 20.4042 63.0551C27.0667 66.1905 34.6057 66.9354 41.7529 65.1645M41.7529 65.1645C49.409 63.2691 56.0971 58.6163 60.537 52.0968M47.4031 23.3693C47.4031 26.5596 46.0039 29.4224 43.7858 31.3808" stroke="#CFB75D" stroke-width="4" stroke-linecap="round" stroke-linejoin="round"/>
</svg>
