<svg width="53" height="12" viewBox="0 0 53 12" fill="none" xmlns="http://www.w3.org/2000/svg">
<g clip-path="url(#clip0_180_78)">
<path d="M16.5388 1.85466C16.4418 1.49615 16.2526 1.16931 15.99 0.906701C15.7273 0.64409 15.4005 0.454874 15.042 0.357898C13.7294 0 8.44743 0 8.44743 0C8.44743 0 3.16522 0.0108611 1.85289 0.36876C1.49439 0.46575 1.16756 0.654974 0.904953 0.917584C0.642343 1.18019 0.45312 1.50702 0.356129 1.86552C-0.0408697 4.19755 -0.19489 7.75078 0.36699 9.9894C0.463981 10.3479 0.653204 10.6747 0.915814 10.9373C1.17842 11.1999 1.50525 11.3892 1.86375 11.4862C3.17618 11.8441 8.45829 11.8441 8.45829 11.8441C8.45829 11.8441 13.7404 11.8441 15.0528 11.4862C15.4113 11.3892 15.7382 11.1999 16.0008 10.9373C16.2634 10.6747 16.4526 10.3479 16.5496 9.9894C16.9682 7.65417 17.0973 4.10311 16.5387 1.85476" fill="#FF0000"/>
<path d="M6.76624 8.45984L11.1481 5.92187L6.76624 3.38379V8.45984Z" fill="white"/>
<path d="M50.813 3.43821C51.3878 3.43821 51.8216 3.54661 52.1253 3.75266C52.429 3.95878 52.646 4.2842 52.7761 4.72892C52.9063 5.1736 52.9605 5.78089 52.9605 6.56186V7.83095H50.173V8.22133L50.2165 9.29513C50.2489 9.53376 50.3032 9.70733 50.3899 9.81573C50.4768 9.92424 50.6177 9.97844 50.8021 9.97844C51.0516 9.97844 51.2252 9.8809 51.3119 9.68571C51.4095 9.49042 51.4529 9.165 51.4637 8.72032L52.9063 8.8071C52.9171 8.87216 52.9171 8.95895 52.9171 9.06735C52.9171 9.75067 52.7327 10.2605 52.3531 10.5967C51.9735 10.9329 51.4529 11.1064 50.7695 11.1064C49.9452 11.1064 49.3704 10.8462 49.045 10.3364C48.7197 9.8266 48.5461 9.02391 48.5461 7.95021V6.63778C48.5829 4.79398 48.9072 3.44359 50.813 3.43821ZM30.7583 3.5792V9.01315C30.7583 9.33857 30.7907 9.5772 30.8667 9.71819C31.0207 10.0197 31.4199 9.94265 31.6368 9.79412C31.762 9.70943 31.8629 9.59356 31.9296 9.45794V3.57909H33.5891V10.9871H32.2875L32.1465 10.076H32.114C31.7561 10.7593 31.2246 11.1063 30.5196 11.1063C29.4346 11.1037 29.169 10.3219 29.1058 9.52786L29.1017 9.4719C29.0939 9.35165 29.0893 9.2312 29.0879 9.11069V3.5792H30.7583ZM39.316 3.5792V9.01315C39.316 9.33857 39.3484 9.5772 39.4244 9.71819C39.5785 10.0197 39.9776 9.94265 40.1945 9.79412C40.3197 9.70943 40.4206 9.59356 40.4873 9.45794V3.57909H42.1468V10.9871H40.8452L40.7042 10.076H40.6717C40.3138 10.7593 39.7823 11.1063 39.0773 11.1063C37.9923 11.1037 37.7267 10.3219 37.6635 9.52786L37.6594 9.4719C37.6516 9.35165 37.647 9.2312 37.6456 9.11069V3.5792H39.316ZM25.9425 3.43821C26.4848 3.43821 26.9295 3.54661 27.2549 3.77439C27.5802 4.00216 27.8297 4.3493 27.9815 4.82646C28.1334 5.30373 28.2093 5.9436 28.2093 6.73543V7.80912C28.2093 8.60095 28.1334 9.23006 27.9815 9.70723C27.8297 10.1846 27.5911 10.5316 27.2549 10.7594C26.9187 10.9763 26.4631 11.0956 25.8991 11.0956C25.3133 11.1064 24.8578 10.9872 24.5216 10.7703C24.1854 10.5425 23.9467 10.1954 23.8058 9.71819C23.6647 9.24092 23.5997 8.61181 23.5997 7.82009V6.74619C23.5997 5.95436 23.6756 5.30363 23.8383 4.82636C24.001 4.33834 24.2504 3.9912 24.5975 3.77439C24.9446 3.55737 25.3893 3.43811 25.9425 3.43811M44.7499 0.466309V4.37092H44.7608C44.9126 4.08894 45.1078 3.86117 45.379 3.6876C45.6323 3.5174 45.9307 3.42677 46.2358 3.42735C46.6372 3.42735 46.9409 3.53575 47.1686 3.7418C47.3964 3.95882 47.5591 4.295 47.6567 4.7614C47.7513 5.21322 47.8051 5.8381 47.8084 6.62609L47.8085 6.70295V7.87429C47.8085 8.96971 47.6675 9.78325 47.4072 10.3039C47.1361 10.8245 46.7239 11.0848 46.1599 11.0848C45.8454 11.0848 45.5634 11.0089 45.3031 10.8679C45.073 10.7337 44.8821 10.5414 44.7497 10.3102L44.7282 10.2713H44.6957L44.5221 10.9763H43.1446V0.466412L44.7499 0.466309ZM38.1119 0.845929V2.19074H36.4633V10.9871H34.8364V2.19084H33.177V0.846033L38.1119 0.845929ZM20.2264 0.845929L20.2275 0.850067C20.2433 0.920509 20.4626 1.89542 20.7038 3.03128L20.7228 3.12127L20.7516 3.2573L20.7708 3.34863L20.7804 3.39446L20.7997 3.48631L20.8093 3.53234L20.8284 3.6245L20.8564 3.75929C21.0193 4.54583 21.1748 5.33466 21.2677 5.90026H21.3112C21.4002 5.3929 21.5297 4.74361 21.6676 4.08067L21.7038 3.90751C21.722 3.82076 21.7403 3.73415 21.7587 3.64767L21.787 3.51351C21.9744 2.63499 22.1674 1.75767 22.366 0.881616L22.3691 0.867651L22.374 0.845929H24.0335L22.1137 7.68996V10.9763H20.4759V7.70072H20.4651L18.567 0.845826L20.2264 0.845929ZM25.9099 4.58783C25.6821 4.58783 25.5303 4.7072 25.4327 4.95669C25.3352 5.20619 25.2917 5.58571 25.2917 6.11728V8.42748C25.2917 8.96981 25.3351 9.37105 25.4218 9.60979C25.5087 9.84839 25.6713 9.96769 25.9099 9.96769C26.1376 9.96769 26.3004 9.84839 26.398 9.60979C26.4956 9.37105 26.539 8.96981 26.539 8.42748V6.11717C26.539 5.58571 26.4955 5.19522 26.398 4.95659C26.3004 4.7072 26.1376 4.58783 25.9099 4.58783ZM45.0427 4.80485C44.9106 4.9269 44.8165 5.07741 44.7606 5.26556L44.7499 5.30373V9.51204C44.8844 9.73981 45.0753 9.89166 45.4115 9.90252C45.585 9.90252 45.726 9.83746 45.8346 9.70733C45.943 9.5772 46.0189 9.36026 46.0622 9.05649C46.104 8.765 46.1256 8.36352 46.1273 7.85205V6.82221C46.1273 6.23654 46.1056 5.79186 46.0731 5.4773C46.0297 5.16274 45.9756 4.93497 45.8779 4.80485C45.6891 4.53363 45.2814 4.53694 45.0427 4.80485ZM50.7805 4.55535C50.596 4.56618 50.4658 4.62041 50.3899 4.71806C50.3032 4.82646 50.2489 4.98917 50.2165 5.22781C50.1845 5.46158 50.1735 6.27875 50.173 6.31143V6.84394H51.3878V6.37432V6.38332C51.3871 6.54748 51.3837 6.28806 51.3762 5.96957L51.3752 5.92674C51.3683 5.64684 51.3584 5.33476 51.3444 5.22781C51.3119 4.97831 51.2576 4.80474 51.1709 4.7072C51.0841 4.60955 50.954 4.55535 50.7804 4.55535" fill="white"/>
</g>
<defs>
<clipPath id="clip0_180_78">
<rect width="52.9607" height="11.9989" fill="white"/>
</clipPath>
</defs>
</svg>
